<svg xmlns="http://www.w3.org/2000/svg" width="59" height="13" viewBox="0 0 59 13" fill="none"><path d="M19.1 10.5L18.6 9.19998H15.7L15.2 10.5H13.5L16.2 3.59998H18.2L20.9 10.5H19.1ZM17.1 5.29997L16.2 7.69998H18L17.1 5.29997Z" fill="#184357"></path><path d="M21.4004 10.5V3.59998H24.1004C25.1004 3.59998 25.9004 3.89998 26.6004 4.59998C27.3004 5.29998 27.6004 6.09997 27.6004 7.09997C27.6004 8.09997 27.3004 8.89997 26.6004 9.59997C25.9004 10.3 25.1004 10.6 24.1004 10.6H21.4004V10.5ZM24.1004 5.19998H23.1004V8.99998H24.1004C24.6004 8.99998 25.0004 8.79998 25.4004 8.49998C25.7004 8.09998 25.9004 7.69998 25.9004 7.19998C25.9004 6.69998 25.7004 6.19997 25.4004 5.89997C25.0004 5.39997 24.6004 5.19998 24.1004 5.19998Z" fill="#184357"></path><path d="M32.1 9.19995H32L30.1 6.19995L30.2 8.69995V10.5999H28.5V3.69995H30.2L32.1 6.59995L34 3.69995H35.7V10.5999H34V8.69995L34.1 6.19995L32.1 9.19995Z" fill="#184357"></path><path d="M38.4002 3.59998V10.5H36.7002V3.59998H38.4002Z" fill="#184357"></path><path d="M39.5996 10.5V3.59998H42.3996C42.6996 3.59998 42.8996 3.59998 43.0996 3.69998C43.6996 3.79998 44.1996 4.09998 44.5996 4.49998C44.8996 4.89998 45.0996 5.39998 45.0996 5.99998C45.0996 6.49998 44.9996 6.89997 44.6996 7.29997C44.4996 7.69997 44.0996 7.89997 43.6996 8.09997L45.3996 10.7H43.4996L41.9996 8.39998H41.1996V10.7H39.5996V10.5ZM42.3996 5.09998H41.2996V6.79997H42.3996C43.0996 6.79997 43.4996 6.49997 43.4996 5.89997C43.3996 5.39997 43.0996 5.09998 42.3996 5.09998Z" fill="#184357"></path><path d="M51.1 10.5L50.6 9.19998H47.7L47.2 10.5H45.5L48.2 3.59998H50.2L52.9 10.5H51.1ZM49.2 5.29997L48.3 7.69998H50.1L49.2 5.29997Z" fill="#DB4124"></path><path d="M58.5 8.99995V10.5999H53.5V3.69995H55.2V8.99995H58.5Z" fill="#184357"></path><path d="M10.7996 12.2999H1.89961C1.19961 12.2999 0.599609 11.7 0.599609 11V1.99995C0.599609 1.29995 1.19961 0.699951 1.89961 0.699951H10.7996C11.4996 0.699951 12.0996 1.29995 12.0996 1.99995V11C12.0996 11.7 11.4996 12.2999 10.7996 12.2999Z" fill="#DB4124"></path><path opacity="0.05" d="M7.19922 3.09998C7.19922 3.69998 7.19922 6.49997 7.19922 7.09997L8.69922 7.99998V3.19998L7.19922 3.09998Z" fill="#F2F5E9"></path><path d="M8.69922 3.09998V7.99998L10.1992 7.09997V3.09998H8.69922Z" fill="#F2F5E9"></path><path d="M10.1992 3.09993L8.69922 3.99993L7.19922 3.09993L8.69922 2.29993L10.1992 3.09993Z" fill="#F2F5E9"></path><path opacity="0.05" d="M4.7998 5.8999C4.7998 6.4999 4.7998 7.8999 4.7998 8.4999L6.2998 9.3999V5.8999H4.7998Z" fill="#F2F5E9"></path><path d="M6.2998 5.8999V9.3999L7.8998 8.4999V5.8999H6.2998Z" fill="#F2F5E9"></path><path d="M7.8998 5.89988L6.2998 6.79988L4.7998 5.89988L6.2998 4.99988L7.8998 5.89988Z" fill="#F2F5E9"></path><path opacity="0.05" d="M2.39941 8.09998C2.39941 8.69998 2.39941 9.29998 2.39941 9.89998L3.99941 10.7V8.09998H2.39941Z" fill="#F2F5E9"></path><path d="M3.99902 8.09998V10.7L5.49902 9.89998V8.09998H3.99902Z" fill="#F2F5E9"></path><path d="M5.49941 8.09995L3.99941 8.99995L2.39941 8.09995L3.99941 7.19995L5.49941 8.09995Z" fill="#F2F5E9"></path></svg>